# xmcd
#
# Track frame offsets:
#	150
#	13114
#	30289
#	46374
#	60923
#	76061
#	97093
#	113397
#	127420
#	142096
#	157253
#	172598
#	188808
#	205934
#	219645
#
# Disc length: 3161 seconds
#
# Revision: 0
# Processed by: cddbd v1.5.2PL0 Copyright (c) Steve Scherf et al.
# Submitted via: audiograbber 1.83.01
#
DISCID=c80c570f
DTITLE=Various Artist - COUNTRY JUNE 2015
DYEAR=2015
DGENRE=Country
TTITLE0=THOMPSON SQUARE - TRANS AM
TTITLE1=JOHN COLBERT - THE MORE I REFILL MY GLASS
TTITLE2=ZANE WILLIAMS - JAYTON AND JILL
TTITLE3=RAY SCOTT - AIN'T ALWASY THIRSTY
TTITLE4=KATYE HAMLIN - LOVE IS LIKE RAIN
TTITLE5=KID ROCK - FIRST KISS
TTITLE6=TYLER BARHAM - JUST TWO KIDS
TTITLE7=COLE SWINDELL - LET ME SEE YA GIRL
TTITLE8=THOMAS RHETT - CRASH AND BURN
TTITLE9=GEORGE STRAIT - LET IT GO
TTITLE10=TOBY KEITH - 35 PMH TOWN
TTITLE11=JOSH GOODLETT - WHY YOU GOTTA BE THAT WAY
TTITLE12=CHRIS STAPLETON - TRAVELER
TTITLE13=GWEN SEBASTIAN - THROW IT BACK
TTITLE14=A THOUSAND HORSES - SMOKE
EXTD=
EXTT0=
EXTT1=
EXTT2=
EXTT3=
EXTT4=
EXTT5=
EXTT6=
EXTT7=
EXTT8=
EXTT9=
EXTT10=
EXTT11=
EXTT12=
EXTT13=
EXTT14=
PLAYORDER=
